<svg xmlns="http://www.w3.org/2000/svg" viewBox="0 0 200 200">
  <!-- Circle arc -->
  <path d="M 100 10 A 90 90 0 1 1 10 100" fill="none" stroke="white" stroke-width="7" stroke-linecap="round" opacity="0.9"/>

  <!-- Mountain / dune silhouette -->
  <path d="M30 152 Q48 108 68 120 Q82 96 100 120 Q114 108 132 136 L136 162 L28 162 Z" fill="white"/>

  <!-- Palm trunk -->
  <path d="M38 170 C41 148 45 128 52 112 C49 109 48 104 51 101" stroke="white" stroke-width="6.5" fill="none" stroke-linecap="round"/>

  <!-- Palm fronds -->
  <path d="M51 101 C63 86 80 90 86 100" stroke="white" stroke-width="5" fill="none" stroke-linecap="round"/>
  <path d="M51 101 C58 84 72 78 80 82" stroke="white" stroke-width="5" fill="none" stroke-linecap="round"/>
  <path d="M51 101 C44 86 34 84 30 89" stroke="white" stroke-width="5" fill="none" stroke-linecap="round"/>
  <path d="M51 101 C40 93 32 100 30 107" stroke="white" stroke-width="5" fill="none" stroke-linecap="round"/>
  <path d="M51 101 C62 96 72 104 74 114" stroke="white" stroke-width="5" fill="none" stroke-linecap="round"/>

  <!-- Sun circle -->
  <circle cx="130" cy="112" r="16" fill="white" opacity="0.9"/>

  <!-- Ocean waves -->
  <path d="M22 166 Q40 158 58 166 Q76 174 94 166 Q112 158 130 166 Q148 174 166 166" stroke="white" stroke-width="5" fill="none" stroke-linecap="round"/>
  <path d="M16 178 Q34 170 52 178 Q70 186 88 178 Q106 170 124 178 Q142 186 160 178" stroke="white" stroke-width="5" fill="none" stroke-linecap="round"/>
  <path d="M12 190 Q30 182 48 190 Q66 198 84 190 Q102 182 120 190 Q138 198 156 190" stroke="white" stroke-width="4" fill="none" stroke-linecap="round"/>

  <!-- Birds -->
  <path d="M116 66 Q121 60 126 66" stroke="white" stroke-width="3.5" fill="none" stroke-linecap="round"/>
  <path d="M130 54 Q135 48 140 54" stroke="white" stroke-width="3.5" fill="none" stroke-linecap="round"/>
</svg>
